<?xml version="1.0" standalone="no"?>
<!DOCTYPE svg PUBLIC "-//W3C//DTD SVG 20010904//EN"
 "http://www.w3.org/TR/2001/REC-SVG-20010904/DTD/svg10.dtd">
<svg version="1.0" xmlns="http://www.w3.org/2000/svg"
 width="65.000000pt" height="64.000000pt" viewBox="0 0 65.000000 64.000000"
 preserveAspectRatio="xMidYMid meet">

<g transform="translate(0.000000,64.000000) scale(0.100000,-0.100000)"
fill="#000000" stroke="none">
<path d="M300 460 c-7 -13 -9 -33 -4 -48 l7 -27 7 25 c6 17 8 19 9 7 1 -10 6
-15 11 -12 15 9 12 51 -4 64 -12 10 -17 8 -26 -9z"/>
<path d="M430 435 c-16 -19 -3 -40 16 -24 15 13 19 39 5 39 -5 0 -14 -7 -21
-15z"/>
<path d="M180 416 c0 -7 6 -19 14 -25 19 -16 32 5 16 24 -16 19 -30 19 -30 1z"/>
<path d="M430 375 c-9 -11 -9 -15 -1 -15 7 0 9 -5 5 -11 -4 -8 0 -8 15 0 23
13 29 41 7 41 -7 0 -19 -7 -26 -15z"/>
<path d="M170 355 c0 -12 28 -35 43 -35 11 0 0 32 -14 41 -20 13 -29 11 -29
-6z"/>
<path d="M298 334 c-12 -11 5 -44 23 -44 14 0 19 7 19 25 0 18 -5 25 -18 25
-10 0 -21 -3 -24 -6z"/>
<path d="M360 294 l-32 -37 -26 20 c-50 36 -56 37 -33 4 13 -18 32 -58 41 -89
l17 -55 7 34 c3 19 19 62 36 97 16 34 28 62 26 62 -2 0 -18 -16 -36 -36z"/>
<path d="M196 251 c-10 -16 5 -42 23 -39 21 4 21 42 -1 46 -9 2 -19 -1 -22 -7z"/>
<path d="M366 219 c-9 -23 -19 -62 -23 -88 l-6 -46 34 31 c19 18 45 38 59 45
l25 13 -35 6 c-33 5 -35 7 -34 43 1 20 0 37 -1 37 -2 0 -10 -18 -19 -41z"/>
<path d="M416 244 c-7 -19 1 -34 19 -34 15 0 28 27 19 41 -9 14 -31 10 -38 -7z"/>
<path d="M271 218 c-1 -37 -2 -38 -38 -38 l-38 0 52 -35 c28 -19 53 -40 56
-47 15 -38 3 65 -13 107 l-18 50 -1 -37z"/>
<path d="M41 177 c9 -21 21 -26 68 -31 31 -4 82 -17 114 -30 31 -13 57 -23 57
-21 0 1 -17 14 -38 29 -38 26 -118 58 -180 71 -31 6 -32 6 -21 -18z"/>
<path d="M550 184 c-63 -17 -153 -58 -169 -78 -8 -9 9 -6 46 9 32 13 83 26
114 30 47 6 59 11 68 31 12 28 14 27 -59 8z"/>
<path d="M80 120 c0 -15 65 -63 120 -88 106 -49 243 -28 338 52 17 15 32 31
32 36 0 16 -157 -26 -186 -51 -9 -7 -19 -7 -33 1 -15 8 -27 8 -42 0 -16 -9
-28 -8 -52 4 -75 35 -177 62 -177 46z"/>
</g>
</svg>
